<svg width="100" height="100" viewBox="0 0 100 100" fill="none" xmlns="http://www.w3.org/2000/svg">
<rect x="1.20005e-05" y="4.37114e-06" width="100" height="100" rx="20" fill="url(#paint0_linear_422_36)"/>
<g clip-path="url(#clip0_422_36)">
<path d="M85.9995 49.1898C86.0597 56.1775 81.0669 62.1873 74.1881 63.4064C76.6882 69.9782 74.04 77.3921 67.9431 80.8913L67.9305 80.8976L67.8062 80.963C61.8014 84.3376 54.2476 82.9853 49.7857 77.7368C45.3157 83.1753 37.5733 84.5902 31.4698 81.0842L31.429 81.0604C31.4023 81.0436 31.3765 81.0256 31.3518 81.0062C25.4063 77.5319 22.7917 70.3045 25.1376 63.8291C18.2039 62.7709 13.0625 56.8365 13.001 49.8208C12.9406 42.8055 17.9779 36.7823 24.8922 35.6038C22.4683 29.2309 24.8857 22.0658 30.5951 18.4473L30.6372 18.4211L30.463 18.5258L31.1309 18.1157C31.1719 18.091 31.2145 18.0691 31.2584 18.0503C37.2627 14.6725 44.8175 16.0238 49.2792 21.2736C53.7481 15.822 61.5044 14.4061 67.6105 17.9262L67.6508 17.9498C67.6777 17.9669 67.7037 17.984 67.7288 18.0011C73.6656 21.484 76.2769 28.7048 73.943 35.1813C80.8413 36.2803 85.9382 42.2025 85.9995 49.1898ZM83.4965 49.2689C83.4725 42.918 78.3062 37.7894 71.957 37.8134C71.6919 37.8306 71.4272 37.7735 71.1928 37.6486C71.0294 37.5617 70.8849 37.4435 70.7673 37.3006C70.6498 37.1578 70.5617 36.9931 70.508 36.816C70.4543 36.639 70.4361 36.4531 70.4544 36.269C70.4727 36.0849 70.5272 35.9062 70.6148 35.7432L70.7006 35.5799C73.4809 30.1699 71.5648 23.5116 66.3057 20.4154C66.2685 20.3987 66.2323 20.3801 66.1969 20.3597L66.0338 20.2673C60.6366 17.2722 53.8193 19.0469 50.5748 24.3255C50.4586 24.5574 50.28 24.7522 50.0591 24.8882C49.7406 25.0852 49.3571 25.1484 48.9922 25.0639C48.6273 24.9795 48.3105 24.7542 48.1109 24.4373L47.8995 24.1101L47.8061 23.974C44.4551 19.167 38.0042 17.6101 32.8152 20.4136L32.6535 20.5026C32.6195 20.5272 32.5842 20.5499 32.5478 20.5709L32.3866 20.6654C27.0971 23.8199 25.2245 30.6013 28.1764 36.0324C28.3138 36.2415 28.3928 36.4834 28.4054 36.7332C28.4181 36.983 28.3637 37.2317 28.2481 37.4535C28.1325 37.6753 27.9597 37.8622 27.7477 37.9948C27.5357 38.1275 27.2921 38.2011 27.0422 38.2081L26.5576 38.2264L27.0422 38.2018C25.5297 38.2032 24.0323 38.5031 22.6359 39.0843C21.2395 39.6655 19.9714 40.5166 18.9045 41.5889C17.8375 42.6612 16.9925 43.9335 16.418 45.333C15.8435 46.7325 15.5507 48.2317 15.5564 49.7445C15.5622 51.2574 15.8663 52.7543 16.4514 54.1494C17.0365 55.5445 17.8911 56.8104 18.9662 57.8746C20.0412 58.9387 21.3157 59.7802 22.7165 60.3508C24.1172 60.9214 25.6168 61.21 27.1293 61.1998C27.3804 61.1822 27.6316 61.2323 27.8568 61.3448C28.082 61.4573 28.2729 61.6281 28.4096 61.8395C28.5464 62.0509 28.6239 62.295 28.6343 62.5466C28.6446 62.7982 28.5873 63.0479 28.4684 63.2698L28.3828 63.4331C25.6099 68.8394 27.5233 75.4886 32.7746 78.5853L32.8866 78.6413L32.8866 78.6473C38.304 81.7696 45.2215 80.0169 48.4992 74.6912C48.6131 74.4674 48.7842 74.2778 48.9952 74.1418C49.2062 74.0057 49.4495 73.928 49.7003 73.9166C49.951 73.9052 50.2003 73.9606 50.4228 74.077C50.6452 74.1933 50.8329 74.3666 50.9665 74.5792L50.9665 74.5823C54.2479 79.8073 61.0489 81.5404 66.43 78.523C66.4629 78.4993 66.4971 78.4776 66.5325 78.4578L66.694 78.3636C71.9892 75.2133 73.8618 68.4259 70.901 62.9963C70.7589 62.7795 70.6784 62.528 70.6682 62.269C70.6564 61.8944 70.7937 61.5305 71.05 61.2572C71.3063 60.9838 71.6606 60.8234 72.035 60.8112L72.0444 60.8112C78.3933 60.7876 83.5206 55.6197 83.4965 49.2689ZM46.3385 40.3019C47.0121 40.6446 47.5286 41.2328 47.7815 41.9452C48.0345 42.6576 48.0046 43.4398 47.6981 44.1308C47.3916 44.8218 46.8317 45.3689 46.134 45.6593C45.4362 45.9497 44.6536 45.9613 43.9475 45.6917C42.8787 45.1913 42.2479 45.1633 41.4959 45.5022L36.0185 48.0754C34.9154 48.579 34.5426 49.6698 34.3252 50.5618L34.3252 50.5586C33.9967 51.9221 33.2366 53.1429 32.1579 54.039C31.0793 54.935 29.7401 55.4584 28.3398 55.5311C26.9396 55.6037 25.5534 55.2217 24.3879 54.442C23.2224 53.6624 22.3401 52.5268 21.8724 51.2046C21.4047 49.8824 21.3768 48.4445 21.7928 47.1051C22.2088 45.7658 23.0464 44.5968 24.1808 43.7725C25.3152 42.9481 26.6855 42.5126 28.0875 42.5308C29.4895 42.549 30.8481 43.02 31.9606 43.8735C32.8989 44.5914 33.5546 44.806 34.732 44.5325L40.6542 43.1525C41.4182 42.963 41.8005 42.5715 42.4439 41.4589C42.8214 40.8039 43.4358 40.3187 44.1605 40.1034C44.8851 39.8881 45.6647 39.9592 46.3385 40.3019ZM55.7186 41.3487C55.7584 42.1082 55.5048 42.8539 55.0105 43.4317C54.5161 44.0095 53.8186 44.3752 53.0623 44.4532C52.306 44.5311 51.5487 44.3154 50.9469 43.8507C50.3451 43.3859 49.9448 42.7075 49.8289 41.9559C49.7329 40.7813 49.4409 40.2218 48.7697 39.7371L43.7984 36.2902C42.8104 35.5915 41.6764 35.8118 40.7939 36.073C39.4435 36.4699 38.001 36.4193 36.6816 35.9289C35.3623 35.4384 34.2369 34.5344 33.4734 33.3517C32.7098 32.1689 32.3491 30.771 32.4451 29.3664C32.541 27.9618 33.0884 26.6259 34.0057 25.558C34.9229 24.4901 36.1608 23.7476 37.5345 23.4412C38.9083 23.1348 40.3443 23.2809 41.6282 23.8578C42.9121 24.4347 43.9751 25.4114 44.6585 26.6421C45.342 27.8729 45.6092 29.2917 45.4204 30.6868C45.265 31.8586 45.4047 32.533 46.2312 33.4126L50.3914 37.8383C50.9383 38.407 51.4694 38.5374 52.756 38.5374C53.5159 38.5369 54.247 38.8283 54.7983 39.3516C55.3496 39.8748 55.679 40.5899 55.7183 41.349M43.6676 63.3883C44.4542 64.1302 45.0428 65.057 45.3798 66.0845C45.7168 67.112 45.7914 68.2075 45.597 69.2713C45.0415 72.3491 42.3808 74.6001 39.2541 74.6375C36.1274 74.675 33.4138 72.488 32.7848 69.4241C32.1558 66.3604 33.7885 63.281 36.6769 62.0829C37.7737 61.6322 38.2863 61.1752 38.6374 60.0192L40.3991 54.2201C40.6165 53.4616 40.4674 52.9395 39.8242 51.83C39.4709 51.2254 39.3463 50.514 39.4731 49.8253C39.8033 48.256 41.3211 47.2335 42.8991 47.5177C44.4771 47.8019 45.5431 49.2898 45.305 50.8758C45.1807 51.5731 44.8076 52.2015 44.255 52.6443C43.2824 53.3156 42.9407 53.85 42.863 54.6645L42.3565 60.6843C42.2413 61.8871 43.0027 62.7665 43.6676 63.3881M65.6369 63.0785C67.9468 65.1154 68.5208 68.4981 66.9993 71.1876C65.4603 73.9076 62.2096 75.1544 59.2467 74.1609C56.2843 73.1675 54.4418 70.2124 54.8528 67.1142C55.0114 65.9456 54.8685 65.2711 54.042 64.3918L49.8849 59.9724C49.3349 59.4037 48.8069 59.2731 47.5172 59.2731C47.0407 59.2736 46.5711 59.1589 46.1484 58.9389C45.7257 58.7188 45.3624 58.3998 45.0894 58.0091C44.8165 57.6184 44.6419 57.1675 44.5806 56.6948C44.5194 56.2221 44.5732 55.7416 44.7375 55.2942C44.9018 54.8467 45.1717 54.4456 45.5244 54.125C45.877 53.8044 46.3018 53.5737 46.7627 53.4526C47.2236 53.3316 47.7069 53.3237 48.1715 53.4296C48.6362 53.5356 49.0683 53.7523 49.4312 54.0612C49.974 54.5172 50.3337 55.1541 50.444 55.8545C50.5403 57.0322 50.8323 57.5918 51.5037 58.0673L56.475 61.5108C57.4659 62.213 58.597 61.9892 59.4824 61.7314C60.5213 61.4231 61.6206 61.3784 62.681 61.6014C63.7415 61.8243 64.7298 62.308 65.5566 63.0086L65.6369 63.0785ZM78.8334 48.7653C78.8342 49.987 78.4922 51.1845 77.8462 52.2213C77.2003 53.2582 76.2763 54.0929 75.1795 54.6304C74.0827 55.168 72.857 55.3868 71.642 55.2619C70.427 55.1371 69.2715 54.6737 68.3068 53.9243C67.3748 53.2159 66.7191 52.9921 65.526 53.281L59.6227 54.6611C58.8552 54.8505 58.4732 55.2421 57.833 56.3518C57.5515 56.8404 57.136 57.2383 56.6355 57.4981C56.1351 57.758 55.5708 57.8691 55.0092 57.8182C54.4477 57.7673 53.9125 57.5566 53.4669 57.2111C53.0213 56.8655 52.684 56.3995 52.4948 55.8682C52.3057 55.3368 52.2727 54.7625 52.3996 54.2129C52.5266 53.6634 52.8083 53.1618 53.2113 52.7674C53.6143 52.373 54.1219 52.1023 54.6739 51.9873C55.2259 51.8724 55.7992 51.918 56.3261 52.1187C57.395 52.6191 58.0287 52.65 58.7778 52.3085L64.2583 49.7384C65.3614 49.2314 65.7343 48.1437 65.9485 47.2521L65.9425 47.2395C66.275 45.8739 67.0382 44.6517 68.1193 43.754C69.2004 42.8562 70.5418 42.3305 71.9449 42.2549C73.348 42.1792 74.7381 42.5575 75.9094 43.3338C77.0808 44.1101 77.971 45.2431 78.4483 46.5651C78.7039 47.2704 78.8342 48.0151 78.8334 48.7653ZM67.4889 28.3855C68.1181 31.45 66.4854 34.5299 63.5963 35.7281C62.5026 36.1785 61.9869 36.6386 61.6358 37.7915L59.8741 43.5938C59.6567 44.3491 59.8087 44.8744 60.4521 45.9838C60.7358 46.4742 60.873 47.0356 60.8476 47.6017C60.8222 48.1677 60.6352 48.7146 60.3087 49.1776C59.9823 49.6406 59.53 50.0003 59.0055 50.2142C58.481 50.4282 57.9062 50.4873 57.3491 50.3846C56.7921 50.2819 56.2761 50.0217 55.8623 49.6348C55.4485 49.2479 55.1541 48.7505 55.0141 48.2015C54.8741 47.6525 54.8943 47.0749 55.0723 46.537C55.2503 45.9991 55.5786 45.5235 56.0185 45.1664C56.9907 44.4951 57.3327 43.9638 57.4104 43.1465L57.9167 37.1296C58.0318 35.927 57.2736 35.0473 56.6056 34.4258C55.8201 33.6831 55.2323 32.7561 54.8954 31.7288C54.5585 30.7015 54.4831 29.6064 54.6762 28.5426C55.2304 25.4637 57.8905 23.2114 61.0178 23.1729C64.145 23.1344 66.8596 25.3213 67.4889 28.3855Z" fill="white"/>
</g>
<defs>
<linearGradient id="paint0_linear_422_36" x1="100" y1="50" x2="1.20005e-05" y2="50" gradientUnits="userSpaceOnUse">
<stop stop-color="#FF6C03"/>
<stop offset="1" stop-color="#4E42BE"/>
</linearGradient>
<clipPath id="clip0_422_36">
<rect width="67" height="73" fill="white" transform="translate(86 16) rotate(90)"/>
</clipPath>
</defs>
</svg>
